<svg width="23" height="22" viewBox="0 0 23 22" fill="none" xmlns="http://www.w3.org/2000/svg">
<path d="M4.61806 0.04142C4.61806 0.0638809 4.64053 0.239077 4.66748 0.432241C4.76631 1.1465 5.12119 1.85177 5.6333 2.3549C5.91631 2.62892 6.41494 2.96134 6.69795 3.06017C6.78779 3.09162 6.86416 3.13204 6.86416 3.14552C6.86416 3.16349 6.77881 3.22189 6.67549 3.28029C6.06455 3.6172 5.33681 4.18322 4.72588 4.79416C3.80049 5.72404 3.06377 6.85607 2.5876 8.09591C2.44385 8.48224 2.38545 8.58107 2.31806 8.58107C2.16533 8.58107 1.63974 8.81017 1.32978 9.01681C0.00458729 9.8883 -0.395218 11.6762 0.426853 13.0508C0.781736 13.6348 1.45556 14.1559 2.1249 14.358C2.27314 14.4029 2.39892 14.4434 2.40791 14.4479C2.41689 14.4524 2.48877 14.641 2.57412 14.8611C2.78076 15.4182 3.22998 16.2897 3.57588 16.7973C3.97568 17.3947 4.3081 17.7856 4.86963 18.3336C6.28916 19.7127 7.98721 20.5617 10.0312 20.9211C10.6735 21.0289 12.2772 21.0334 12.9331 20.9211C14.3302 20.6875 15.5925 20.1979 16.7021 19.4656C17.3534 19.0344 17.7667 18.693 18.3237 18.1225C19.303 17.1117 19.9858 16.0201 20.489 14.641C20.5608 14.4524 20.5833 14.4344 20.7854 14.3805C21.2886 14.2502 21.904 13.8684 22.2499 13.4686C22.5015 13.1721 22.7036 12.8172 22.8384 12.4219C22.9462 12.1074 22.9642 11.9906 22.9642 11.5235C22.9687 11.0787 22.9507 10.926 22.8653 10.6475C22.6542 9.96466 22.2274 9.39416 21.6524 9.01232C21.3425 8.81017 20.8169 8.58107 20.6642 8.58107C20.5968 8.58107 20.5429 8.48673 20.4126 8.13634C19.5771 5.93966 17.9284 4.09337 15.8306 3.01525C14.5278 2.34591 13.014 1.97755 11.563 1.97755C10.5747 1.97755 10.1749 1.85626 9.69424 1.40705C9.37529 1.11505 9.17314 0.73771 9.10127 0.301968L9.05185 0.000989914H8.38701C7.61885 0.000989914 7.67724 -0.0439316 7.76709 0.490639C7.82998 0.890443 7.96474 1.27228 8.15791 1.61818C8.24775 1.7799 8.32861 1.92365 8.3376 1.94162C8.36006 1.99552 7.90635 1.98654 7.60986 1.92814C7.21006 1.85626 6.87314 1.67658 6.56767 1.37111C6.25322 1.06115 6.08252 0.733218 6.01064 0.301968L5.95674 0.000989914H5.2874C4.90556 0.000989914 4.61806 0.018959 4.61806 0.04142ZM12.129 3.41505C13.7237 3.9047 14.2179 5.89923 13.0409 7.07619C12.3536 7.76349 11.3608 7.91623 10.4579 7.46701C9.84248 7.16154 9.29443 6.31701 9.28994 5.67013V5.52638H8.61611H7.94228V5.70607C7.94228 6.23615 8.21182 7.03126 8.5667 7.53439C9.02041 8.17677 9.64033 8.63947 10.413 8.90451C10.8173 9.03927 10.8712 9.04826 11.4911 9.04826C12.111 9.04826 12.1649 9.03927 12.5692 8.90451C13.1128 8.71583 13.5306 8.46876 13.9214 8.1004C14.6401 7.42208 15.0399 6.50119 15.0399 5.52638C15.0399 5.12208 14.9456 4.5965 14.8108 4.25509C14.7614 4.1338 14.73 4.0215 14.7435 4.01251C14.7839 3.96759 15.8351 4.54708 16.2528 4.84357C16.8054 5.23439 17.7622 6.19123 18.1485 6.73927C18.4765 7.20646 18.9616 8.1049 19.1503 8.60353C19.2132 8.77423 19.3255 9.12013 19.3929 9.3672L19.5187 9.81642L19.9544 9.84787C20.6192 9.89728 21.055 10.1219 21.3515 10.5711C21.8097 11.2719 21.7063 12.1254 21.0999 12.6869C20.7765 12.9879 20.4935 13.1002 19.9364 13.1496L19.5187 13.1856L19.3524 13.7471C19.1593 14.4074 19.0739 14.6231 18.7729 15.225C17.4163 17.9293 14.5413 19.6813 11.4776 19.6768C8.42744 19.6723 5.56142 17.9158 4.20928 15.225C3.9083 14.6231 3.82295 14.4074 3.62978 13.7471L3.46357 13.1856L3.0458 13.1496C2.48877 13.1002 2.20576 12.9879 1.88232 12.6869C1.50049 12.3365 1.36123 12.0086 1.36123 11.4785C1.36572 11.1326 1.38369 11.0383 1.48701 10.8272C1.67119 10.4408 1.88681 10.2207 2.25068 10.041C2.5292 9.90177 2.63701 9.87482 3.01885 9.84787L3.46357 9.81642L3.58935 9.3672C3.80498 8.59455 4.04756 8.01505 4.41592 7.39064C5.87139 4.91544 8.51728 3.35666 11.2935 3.3297C11.7247 3.32521 11.9044 3.34318 12.129 3.41505Z" fill="#E7E7F2"/>
<path d="M7.35828 9.57385C6.86863 9.62776 6.47781 9.81194 6.09148 10.1803C5.70515 10.5487 5.42664 11.1281 5.42664 11.5729V11.775L6.08699 11.7615L6.74734 11.7481L6.78777 11.5504C6.84167 11.2809 7.13816 10.9844 7.40769 10.9305C7.66824 10.8766 7.96472 10.935 8.15339 11.0787C8.3241 11.209 8.48132 11.4875 8.48132 11.6582V11.7705H9.15515H9.82898V11.5998C9.82898 11.2 9.57742 10.625 9.25398 10.2746C8.74187 9.73108 8.09949 9.49299 7.35828 9.57385Z" fill="#E7E7F2"/>
<path d="M15.0848 9.57385C14.5637 9.62776 14.1235 9.85686 13.7282 10.2746C13.3958 10.634 13.1532 11.191 13.1532 11.5998V11.7705H13.827H14.5009V11.6582C14.5009 11.4875 14.6581 11.209 14.8288 11.0787C15.0175 10.935 15.3139 10.8766 15.5745 10.9305C15.844 10.9844 16.1405 11.2809 16.1944 11.5504L16.2348 11.7481L16.8952 11.7615L17.5555 11.775V11.5774C17.5555 10.8272 16.8907 9.95569 16.1046 9.67717C15.8395 9.58284 15.4262 9.54241 15.0848 9.57385Z" fill="#E7E7F2"/>
<path d="M8.85417 14.8432C8.55319 15.0184 8.29265 15.1801 8.27468 15.1981C8.21628 15.252 8.75085 15.8989 9.07878 16.1729C9.46511 16.4963 10.076 16.8108 10.5702 16.941C11.0733 17.0758 11.9089 17.0758 12.4075 16.941C13.2071 16.7299 13.9348 16.2537 14.438 15.6158C14.5952 15.4182 14.721 15.2385 14.712 15.216C14.7075 15.1981 14.4514 15.0319 14.146 14.8477L13.5889 14.5153L13.4991 14.6365C12.5288 15.9303 10.8083 16.0651 9.73464 14.933C9.62233 14.8117 9.50104 14.668 9.46511 14.6141C9.40222 14.5197 9.39772 14.5197 8.85417 14.8432Z" fill="#E7E7F2"/>
</svg>
