<svg width="116" height="113" viewBox="0 0 116 113" fill="none" xmlns="http://www.w3.org/2000/svg">
<path d="M37.6544 16.6394C31.4307 17.5469 26.2882 18.3666 26.2297 18.4544C26.1713 18.5129 25.4992 19.8303 24.7103 21.3526C22.928 24.9241 23.1033 24.6313 19.5678 28.3199C17.9315 30.0471 15.9154 32.1256 15.1264 32.9746L13.6655 34.4969L12.8474 39.5614C12.3798 42.3425 12 45.0064 12 45.4748C12 46.9971 15.3602 52.8228 18.0191 55.9259C19.3632 57.4774 20.6489 58.9119 20.8826 59.0875C21.204 59.3803 22.9864 59.2046 29.064 58.3849L36.8071 57.3018L37.7713 57.9751C38.2972 58.3557 40.3134 59.8194 42.2418 61.2539C44.1703 62.6883 45.8942 63.9471 46.0987 64.0057C46.3033 64.0935 47.8811 63.3031 49.605 62.2492C54.2509 59.4681 55.9456 58.5313 62.403 55.3111C70.7597 51.1248 70.0292 51.5932 69.4448 50.9492C69.1819 50.6564 67.2826 49.544 65.2081 48.4609C63.1335 47.3777 61.3511 46.2945 61.2635 46.0311C61.1758 45.7969 61.2343 45.3285 61.4096 45.0064C61.6725 44.5088 61.9063 44.4502 63.0458 44.6259C64.6529 44.8601 70.3506 46.2945 73.6232 47.2606C77.2464 48.3438 78.5028 48.2267 83.6746 46.3531C86.1582 45.4163 86.9471 45.5334 86.9471 46.8507C86.9471 47.4362 86.4796 47.7875 83.8791 49.1634C79.8176 51.2712 78.6489 52.5007 76.3113 57.0383C75.2887 59.029 73.7693 61.8101 72.9511 63.186C71.5778 65.4401 71.3149 65.7036 70.5552 65.7036C69.328 65.7036 69.328 64.7375 70.5552 60.4927C71.6655 56.6577 71.8116 55.8966 71.2856 55.8966C70.7889 55.8966 67.1365 57.9165 60.6499 61.8393C38.3849 75.2178 25.1778 86.752 24.1259 93.7194C23.8922 95.2709 24.6811 97.4958 25.6746 98.0228C26.2005 98.2862 26.2297 98.2277 26.0836 96.9396C26.0252 96.0614 26.1421 95.1539 26.4343 94.4513C28.1582 90.265 36.1058 83.3269 47.0045 76.4474C48.7869 75.2764 50.2771 74.4567 50.2771 74.5738C50.2771 74.6909 49.6635 75.5691 48.933 76.5352L47.5889 78.2917L47.7642 81.6583C48.3194 93.3388 48.1441 92.1093 50.1602 98.0228C51.1537 100.979 51.9134 103.585 51.8257 103.79C51.3874 104.932 37.7128 106.454 30.5542 106.132C24.4766 105.868 20.0353 104.814 17.5516 103.029C16.1199 102.004 16.5582 102.853 18.2237 104.375C22.1098 107.918 28.8594 109.557 39.3199 109.586C43.4106 109.586 51.0952 109.147 53.3159 108.767C53.462 108.767 53.8418 109.557 54.1632 110.552L54.7768 112.367L59.3058 112.455L63.864 112.543L68.9773 110.113C71.7824 108.767 74.529 107.449 75.0841 107.186C76.0191 106.717 76.2237 106.337 78.4736 100.394C79.8176 96.9396 80.9864 93.895 81.0741 93.6316C81.1909 93.3681 83.0902 91.8165 85.3401 90.1772C88.4373 87.8937 89.4307 87.0155 89.5476 86.4007C89.6353 85.9616 89.9859 83.7075 90.3073 81.3655C90.9501 76.8865 93.1416 65.7036 93.5214 65.001C93.6383 64.7961 95.1577 63.7422 96.9108 62.659L100.096 60.7269L100.242 58.6484C100.388 56.687 100.446 56.5406 101.937 54.8427L103.456 53.057V50.393C103.456 47.2313 103.836 47.407 98.9562 48.2852C97.2322 48.6072 95.6836 48.7829 95.5375 48.7243C95.1577 48.4608 92.2942 42.8401 91.33 40.4103L90.4534 38.2147L86.129 36.9852C83.733 36.3119 81.6877 35.6678 81.5708 35.5215C81.4247 35.3751 81.1617 34.7896 80.9864 34.2041C80.8111 33.6479 79.3793 31.5987 77.86 29.6665C76.3113 27.7637 74.7919 25.8608 74.4998 25.4803C74.0322 24.8948 73.0096 24.5435 68.8897 23.5189C61.4096 21.6453 61.994 21.6746 59.7149 23.109L57.7572 24.3678L53.8418 22.4064L49.9264 20.445L50.0433 17.7518C50.131 15.2342 50.1018 15.0585 49.5466 15C49.2252 15 43.8781 15.7318 37.6544 16.6394Z" fill="#150D02"/>
</svg>
