<svg width="16" height="16" viewBox="0 0 16 16" fill="none" xmlns="http://www.w3.org/2000/svg">
<path d="M5.91258 3.69589L2.69258 0.47589C2.07258 -0.14311 1.04458 -0.15811 0.436581 0.47289C-0.15242 1.08489 -0.14542 2.05889 0.457581 2.66189L3.70258 5.90589L0.51258 14.0899C0.28858 14.7179 0.529581 15.4169 1.09258 15.7739C1.65558 16.1299 2.39158 16.0479 2.86258 15.5769L7.16458 9.36789L11.0256 13.2309L11.0156 15.2479C11.0166 15.6089 11.2866 15.9179 11.6536 15.9619C11.9666 15.9989 12.2656 15.8189 12.4006 15.5339L12.8506 14.5839C13.2126 13.8219 13.8266 13.2079 14.5886 12.8469L15.5586 12.3869C15.8146 12.2649 15.9716 12.0069 15.9716 11.7339C15.9716 11.6819 15.9666 11.6289 15.9546 11.5759C15.8816 11.2459 15.5896 11.0119 15.2526 11.0099L13.2166 11.0009L9.37458 7.15889L15.5826 2.85689C16.0536 2.38489 16.1356 1.64989 15.7796 1.08689C15.4236 0.523889 14.7236 0.28289 14.0966 0.50689L5.91258 3.69689V3.69589Z" fill="#50B9DC"/>
</svg>
