<svg width="16" height="16" viewBox="0 0 16 16" fill="none" xmlns="http://www.w3.org/2000/svg">
<g clip-path="url(#clip0_183_227)">
<path d="M10.087 3.69491L13.307 0.474913C13.927 -0.144087 14.955 -0.159087 15.563 0.471913C16.152 1.08391 16.145 2.05791 15.542 2.66091L12.297 5.90491L15.487 14.0889C15.711 14.7169 15.47 15.4159 14.907 15.7729C14.344 16.1289 13.608 16.0469 13.137 15.5759L8.83499 9.36691L4.97399 13.2299L4.98399 15.2469C4.98299 15.6079 4.71299 15.9169 4.34599 15.9609C4.03299 15.9979 3.73399 15.8179 3.59899 15.5329L3.14899 14.5829C2.78699 13.8209 2.17299 13.2069 1.41099 12.8459L0.440993 12.3859C0.184993 12.2639 0.0279928 12.0059 0.0279928 11.7329C0.0279928 11.6809 0.0329928 11.6279 0.0449928 11.5749C0.117993 11.2449 0.409993 11.0109 0.746993 11.0089L2.78299 10.9999L6.62499 7.15791L0.416993 2.85591C-0.0540072 2.38391 -0.136007 1.64891 0.219993 1.08591C0.575993 0.522913 1.27599 0.281913 1.90299 0.505913L10.087 3.69591V3.69491Z" fill="#50B9DC"/>
</g>
<defs>
<clipPath id="clip0_183_227">
<rect width="16" height="16" fill="white"/>
</clipPath>
</defs>
</svg>
