<svg width="24" height="24" viewBox="0 0 24 24" fill="none" xmlns="http://www.w3.org/2000/svg">
<path fill-rule="evenodd" clip-rule="evenodd" d="M10.5067 1.50804C10.6884 1.29895 10.9706 1.20705 11.2406 1.26904C14.8494 2.09755 16.6735 6.05217 16.2445 9.5903C16.0778 10.9657 15.6658 12.0439 15.0592 12.9018C15.0555 12.9071 15.0517 12.9123 15.048 12.9175C15.1858 12.8498 15.3129 12.7767 15.4319 12.6995C16.0238 12.3153 16.4583 11.8083 17.0239 11.1481C17.0923 11.0683 17.1626 10.9863 17.2353 10.902C17.3987 10.7125 17.6459 10.6169 17.8942 10.6473C18.1426 10.6776 18.3595 10.8299 18.4725 11.0531C18.97 12.0363 19.25 13.1479 19.25 14.3226C19.25 18.3267 16.0041 21.5726 12 21.5726C7.99594 21.5726 4.75 18.3267 4.75 14.3226C4.75 11.7856 6.05371 9.5535 8.02431 8.25906L8.09187 8.19098C8.12658 8.15601 8.16464 8.12454 8.20552 8.09703C9.07138 7.5144 9.69312 7.03786 10.1117 6.47743C10.5071 5.94801 10.75 5.3022 10.75 4.32264C10.75 3.59736 10.6161 2.90512 10.3723 2.26809C10.2733 2.00936 10.3249 1.71713 10.5067 1.50804ZM12.1712 3.25081C12.2231 3.60079 12.25 3.95872 12.25 4.32264C12.25 5.59106 11.9223 6.55995 11.3135 7.37505C10.7417 8.14054 9.95028 8.72847 9.10466 9.2999L9.03236 9.37275C8.99362 9.41179 8.95071 9.44644 8.90439 9.4761C7.30648 10.4991 6.25 12.2877 6.25 14.3226C6.25 17.4983 8.82436 20.0726 12 20.0726C15.1756 20.0726 17.75 17.4983 17.75 14.3226C17.75 13.8028 17.6812 13.2997 17.5523 12.8217C17.1721 13.2334 16.7524 13.6307 16.2485 13.9577C15.3253 14.5569 14.1699 14.899 12.5 14.899C12.1577 14.899 11.8589 14.6673 11.7736 14.3358C11.6884 14.0044 11.8383 13.6572 12.1381 13.4921C12.8169 13.1181 13.3923 12.661 13.8345 12.0357C14.2757 11.4118 14.6137 10.5787 14.7555 9.40975C15.0623 6.879 14.0149 4.38107 12.1712 3.25081Z" fill="red"/>
<path d="M10.1694 15.2768C10.0289 15.6592 9.96779 16.0582 9.96382 16.4648C9.95959 16.8978 9.90038 17.4319 10.0552 17.8469C10.2804 18.4506 11.3772 18.5144 11.8677 18.3267C12.1312 18.2258 12.2864 18.1796 12.3627 17.8926C12.4303 17.6378 12.4755 17.3352 12.4578 17.0702C12.4403 16.8068 12.4214 16.5424 12.4312 16.2782C12.4349 16.177 12.8757 16.2487 12.9395 16.2591C13.6845 16.3815 14.45 16.5829 15.1423 16.1849C15.4728 15.9948 15.8371 15.977 16.0999 15.688C16.3948 15.3635 16.6917 15.049 16.8862 14.6599" stroke="red" stroke-width="3" stroke-linecap="round"/>
<path d="M17.4002 13.5634C17.4954 13.8133 17.5221 14.0583 17.3317 14.2487" stroke="white" stroke-width="3" stroke-linecap="round"/>
<path d="M16.8177 15.1397C17.0444 15.0412 17.5716 14.7913 17.5716 14.4905C17.5716 14.2363 17.2258 14.1802 17.0233 14.1802C16.5772 14.1802 17.2691 13.6025 17.3831 13.5138C17.6903 13.275 17.7192 13.9283 17.5183 14.0431C17.4172 14.1009 17.3801 14.1641 17.3165 14.2639C17.2712 14.3352 17.2609 14.413 17.2441 14.4943C17.1562 14.9213 16.9689 15.3399 16.8044 15.7413C16.6912 16.0174 16.57 16.3336 16.3988 16.5809C16.1698 16.9117 15.8134 17.171 15.5002 17.4167C15.1994 17.6528 14.905 17.9043 14.5883 18.1192C14.2266 18.3646 13.8324 18.4472 13.427 18.5876C12.9719 18.7451 12.5784 18.9212 12.0867 18.9398C11.4542 18.9636 10.8454 18.8881 10.2361 18.717C9.57571 18.5316 8.88408 18.3891 8.36275 17.9174C8.06403 17.6471 7.80028 17.3755 7.66785 16.9902C7.46352 16.3958 7.05481 15.8014 7.05481 15.1492C7.05481 14.7806 7.11532 14.4181 7.18808 14.0583C7.27494 13.6288 7.33324 13.1981 7.47746 12.7828C7.80069 11.8519 8.65016 11.3932 9.32418 10.7399C9.89054 10.191 10.3499 9.55991 10.9234 9.02078C11.4181 8.55577 11.8158 7.92462 12.0809 7.29971C12.2076 7.00112 12.1889 6.67461 12.2332 6.35922C12.3055 5.84514 12.3627 5.35983 12.3627 4.83995C12.3627 4.81721 12.3628 4.6695 12.3779 4.68384C12.565 4.86101 12.6663 5.16408 12.7663 5.39207C12.9919 5.90614 13.1728 6.43748 13.3641 6.96464C13.4783 7.27932 13.649 7.56396 13.7792 7.87086C13.8382 8.00995 13.803 8.21398 13.7944 8.35825C13.7503 9.0975 13.7035 9.87456 13.3832 10.5553C13.1782 10.9908 12.9312 11.4523 12.6026 11.808C12.2949 12.1411 11.87 12.3429 11.4831 12.5657C10.9676 12.8626 10.4461 13.1939 10.0743 13.6661C9.85932 13.9392 9.7002 14.2512 9.49172 14.5267C9.43524 14.6013 9.46976 14.4239 9.40034 14.4201C9.35354 14.4175 9.23153 14.4594 9.22138 14.3782C9.17505 14.0076 9.3948 13.4677 9.51457 13.1331C9.78272 12.3839 10.3193 11.8202 10.8929 11.2902C10.8952 11.2881 11.0659 11.1092 11.0795 11.1569C11.1613 11.4432 11.0279 11.9157 10.9919 12.1964C10.879 13.0794 10.592 13.8533 10.2114 14.6523C10.0766 14.9352 9.92858 15.2172 9.82299 15.5129C9.78969 15.6061 9.73294 15.7571 9.77349 15.8594C9.82733 15.9951 10.0324 16.0533 10.1543 16.084C10.5249 16.1776 10.9281 16.1896 11.308 16.2021C11.7838 16.2177 12.246 16.1842 12.6978 16.0231C12.9497 15.9333 13.1662 15.781 13.4098 15.6766C13.6234 15.585 13.8643 15.5807 14.0914 15.5509C14.2413 15.5313 14.3897 15.5201 14.5407 15.5167C14.5458 15.5166 14.7405 15.5231 14.6549 15.4672C14.4653 15.3432 14.1647 15.3373 13.9505 15.3263C13.4209 15.2991 12.8926 15.3637 12.3665 15.4139C11.6782 15.4796 10.9199 15.6055 10.238 15.4481" stroke="red" stroke-width="3" stroke-linecap="round"/>
</svg>
