<svg width="112" height="88" viewBox="0 0 112 88" fill="none" xmlns="http://www.w3.org/2000/svg">
<path fill-rule="evenodd" clip-rule="evenodd" d="M60.5555 27.3887C61.6294 26.3148 63.3706 26.3148 64.4445 27.3887L79.1112 42.0554C80.1852 43.1293 80.1852 44.8705 79.1112 45.9445L64.4445 60.6111C63.3706 61.6851 61.6294 61.6851 60.5555 60.6111C59.4815 59.5372 59.4815 57.796 60.5555 56.722L73.2776 43.9999L60.5555 31.2778C59.4815 30.2039 59.4815 28.4626 60.5555 27.3887Z" fill="white"/>
<path fill-rule="evenodd" clip-rule="evenodd" d="M48.5555 27.3887C49.6294 26.3148 51.3706 26.3148 52.4445 27.3887L67.1112 42.0554C68.1852 43.1293 68.1852 44.8705 67.1112 45.9445L52.4445 60.6111C51.3706 61.6851 49.6294 61.6851 48.5555 60.6111C47.4815 59.5372 47.4815 57.796 48.5555 56.722L61.2776 43.9999L48.5555 31.2778C47.4815 30.2039 47.4815 28.4626 48.5555 27.3887Z" fill="white"/>
<path fill-rule="evenodd" clip-rule="evenodd" d="M36.5555 27.3887C37.6294 26.3148 39.3706 26.3148 40.4445 27.3887L55.1112 42.0554C56.1852 43.1293 56.1852 44.8705 55.1112 45.9445L40.4445 60.6111C39.3706 61.6851 37.6294 61.6851 36.5555 60.6111C35.4815 59.5372 35.4815 57.796 36.5555 56.722L49.2776 43.9999L36.5555 31.2778C35.4815 30.2039 35.4815 28.4626 36.5555 27.3887Z" fill="white"/>
</svg>
