<svg width="82" height="80" viewBox="0 0 82 80" fill="none" xmlns="http://www.w3.org/2000/svg">
<path d="M26.6035 6.19689C22.204 6.83938 18.5688 7.41969 18.5274 7.48186C18.4861 7.52332 18.0111 8.45596 17.4534 9.53368C16.1934 12.0622 16.3174 11.8549 13.8181 14.4663C12.6615 15.6891 11.2363 17.1606 10.6786 17.7617L9.64584 18.8394L9.0675 22.4249C8.73702 24.3938 8.46851 26.2798 8.46851 26.6114C8.46851 27.6891 10.8438 31.8135 12.7234 34.0104C13.6735 35.1088 14.5824 36.1244 14.7476 36.2487C14.9748 36.456 16.2348 36.3316 20.531 35.7513L26.0045 34.9845L26.6861 35.4611C27.0579 35.7306 28.4831 36.7668 29.8463 37.7824C31.2096 38.7979 32.4282 39.6891 32.5728 39.7306C32.7174 39.7927 33.8327 39.2332 35.0514 38.487C38.3355 36.5181 39.5335 35.8549 44.0982 33.5751C50.0055 30.6114 49.4892 30.943 49.0761 30.487C48.8902 30.2798 47.5476 29.4922 46.0811 28.7254C44.6146 27.9585 43.3547 27.1917 43.2927 27.0052C43.2307 26.8394 43.272 26.5078 43.396 26.2798C43.5819 25.9275 43.7471 25.886 44.5526 26.0104C45.6887 26.1762 49.7164 27.1917 52.0297 27.8756C54.5909 28.6425 55.4791 28.5596 59.135 27.2332C60.8907 26.5699 61.4484 26.6528 61.4484 27.5855C61.4484 28 61.1179 28.2487 59.2796 29.2228C56.4086 30.715 55.5824 31.5855 53.93 34.7979C53.207 36.2073 52.133 38.1762 51.5547 39.1503C50.5839 40.7461 50.398 40.9326 49.861 40.9326C48.9934 40.9326 48.9934 40.2487 49.861 37.2435C50.6458 34.5285 50.7491 33.9896 50.3773 33.9896C50.0262 33.9896 47.4443 35.4197 42.8589 38.1969C27.1199 47.6684 17.7839 55.8342 17.0403 60.7668C16.8751 61.8653 17.4327 63.4404 18.135 63.8135C18.5068 64 18.5274 63.9585 18.4242 63.0466C18.3829 62.4249 18.4655 61.7824 18.672 61.285C19.8907 58.3212 25.5088 53.4093 33.2131 48.5389C34.473 47.7098 35.5264 47.1295 35.5264 47.2124C35.5264 47.2953 35.0927 47.9171 34.5763 48.601L33.6262 49.8446L33.7501 52.228C34.1426 60.4974 34.0186 59.6269 35.4438 63.8135C36.1461 65.9067 36.6831 67.7513 36.6212 67.8964C36.3113 68.7047 26.6448 69.7824 21.5844 69.5544C17.2882 69.3679 14.1486 68.6218 12.3929 67.3575C11.3808 66.6321 11.6907 67.2332 12.868 68.3109C15.6151 70.8187 20.3864 71.9793 27.7808 72C30.6725 72 36.1048 71.6891 37.6746 71.4197C37.7778 71.4197 38.0463 71.9793 38.2735 72.6839L38.7073 73.9689L41.9088 74.0311L45.131 74.0933L48.7456 72.3731C50.7285 71.4197 52.67 70.487 53.0625 70.3005C53.7234 69.9689 53.868 69.6995 55.4584 65.4922C56.4086 63.0466 57.2348 60.8912 57.2967 60.7047C57.3793 60.5181 58.7219 59.4197 60.3123 58.2591C62.5018 56.6425 63.204 56.0207 63.2866 55.5855C63.3486 55.2746 63.5965 53.6788 63.8237 52.0207C64.2781 48.8497 65.8272 40.9326 66.0957 40.4352C66.1783 40.2902 67.2524 39.544 68.4917 38.7772L70.7431 37.4093L70.8463 35.9378C70.9496 34.5492 70.9909 34.4456 72.0443 33.2435L73.1184 31.9793V30.0933C73.1184 27.8549 73.3869 27.9793 69.9375 28.601C68.7189 28.829 67.6242 28.9534 67.5209 28.9119C67.2524 28.7254 65.2282 24.7461 64.5466 23.0259L63.9269 21.4715L60.87 20.601C59.1763 20.1244 57.7305 19.6684 57.6479 19.5648C57.5446 19.4611 57.3587 19.0466 57.2348 18.6321C57.1108 18.2383 56.0987 16.7876 55.0247 15.4197C53.93 14.0725 52.8559 12.7254 52.6494 12.456C52.3189 12.0415 51.596 11.7927 48.6836 11.0674C43.396 9.74093 43.8091 9.76166 42.198 10.7772L40.8141 11.6684L38.0463 10.2798L35.2786 8.89119L35.3612 6.98446C35.4232 5.20207 35.4025 5.07772 35.0101 5.03627C34.7829 5.03627 31.003 5.55441 26.6035 6.19689Z" fill="white"/>
</svg>
