<svg width="16" height="16" viewBox="0 0 16 16" fill="none" xmlns="http://www.w3.org/2000/svg">
<rect width="16" height="16" rx="8" fill="white"/>
<path fill-rule="evenodd" clip-rule="evenodd" d="M8 16C12.4184 16 16 12.4184 16 8C16 3.5816 12.4184 0 8 0C3.5816 0 0 3.5816 0 8C0 12.4184 3.5816 16 8 16ZM12.2968 5.468C12.3342 5.42945 12.3635 5.38374 12.3829 5.33363C12.4023 5.28351 12.4113 5.23 12.4096 5.1763C12.4078 5.1226 12.3953 5.0698 12.3726 5.02105C12.35 4.97231 12.3178 4.92862 12.278 4.8926C12.2381 4.85658 12.1914 4.82896 12.1406 4.81138C12.0898 4.79381 12.036 4.78665 11.9824 4.79033C11.9288 4.79401 11.8765 4.80845 11.8286 4.83279C11.7807 4.85713 11.7382 4.89087 11.7036 4.932L6.912 10.2268L4.276 7.7104C4.1993 7.63709 4.09662 7.59726 3.99055 7.59966C3.88448 7.60206 3.78371 7.6465 3.7104 7.7232C3.63709 7.7999 3.59726 7.90258 3.59966 8.00865C3.60206 8.11472 3.6465 8.21549 3.7232 8.2888L6.6568 11.0888L6.954 11.3728L7.2296 11.068L12.2964 5.468H12.2968Z" fill="#26C296"/>
</svg>
